<?xml version="1.0"?>
<svg xmlns="http://www.w3.org/2000/svg" width="512" height="512" viewBox="0 0 512 512"><g><path d="M384,8A120.1,120.1,0,0,0,277.9,72H40A32.03,32.03,0,0,0,8,104V472a32.03,32.03,0,0,0,32,32H408a32.03,32.03,0,0,0,32-32V234.1A119.98,119.98,0,0,0,384,8ZM24,104A16.021,16.021,0,0,1,40,88H270.86a119.573,119.573,0,0,0-6.59,32H24ZM424,472a16.021,16.021,0,0,1-16,16H40a16.021,16.021,0,0,1-16-16V136H264.27A120,120,0,0,0,424,241.14ZM384,232A104,104,0,1,1,488,128,104.112,104.112,0,0,1,384,232Z"/><path d="M439.59,165.47l-8-24A8,8,0,0,0,424,136V104a32.017,32.017,0,0,0-16-27.7V72a24,24,0,0,0-48,0v4.3A32.017,32.017,0,0,0,344,104v32a8,8,0,0,0-7.59,5.47l-8,24A8,8,0,0,0,336,176h24a24,24,0,0,0,48,0h24a8,8,0,0,0,7.59-10.53ZM384,64a8.011,8.011,0,0,1,8,8H376A8.011,8.011,0,0,1,384,64Zm-24,40a16.021,16.021,0,0,1,16-16h16a16.021,16.021,0,0,1,16,16v32H360Zm24,80a8.011,8.011,0,0,1-8-8h16A8.011,8.011,0,0,1,384,184Zm-36.9-24,2.67-8h68.46l2.67,8Z"/><path d="M400,360H272a8,8,0,0,0-8,8v48a8,8,0,0,0,8,8H400a8,8,0,0,0,8-8V368A8,8,0,0,0,400,360Zm-8,48H280V376H392Z"/><path d="M400,432H304a8,8,0,0,0,0,16h96a8,8,0,0,0,0-16Z"/><path d="M400,456H360a8,8,0,0,0,0,16h40a8,8,0,0,0,0-16Z"/><path d="M296,312a8,8,0,0,0,8,8h96a8,8,0,0,0,0-16H304A8,8,0,0,0,296,312Z"/><path d="M400,328H360a8,8,0,0,0,0,16h40a8,8,0,0,0,0-16Z"/><circle cx="40" cy="104" r="8"/><circle cx="64" cy="104" r="8"/><circle cx="88" cy="104" r="8"/><path d="M152,248H48a8,8,0,0,0,0,16H152a8,8,0,0,0,0-16Z"/><path d="M48,288H80a8,8,0,0,0,0-16H48a8,8,0,0,0,0,16Z"/><path d="M112,288a8,8,0,0,0,0-16h-8a8,8,0,0,0,0,16Z"/><path d="M152,296H48a8,8,0,0,0,0,16H152a8,8,0,0,0,0-16Z"/><path d="M152,320H48a8,8,0,0,0,0,16H152a8,8,0,0,0,0-16Z"/><path d="M216,160H48a8,8,0,0,0-8,8v64a8,8,0,0,0,8,8H216a8,8,0,0,0,8-8V168A8,8,0,0,0,216,160Zm-8,64H56V176H208Z"/></g></svg>
